<svg xmlns="http://www.w3.org/2000/svg" width="1101" height="618" viewBox="0 0 1101 618">
    <g id="Illustration" transform="translate(-1259.438 -395.551)">
        <path id="Path_391" data-name="Path 391" d="M1093.791,210.7c-7.089,0-13.585,0-20.084.59a307.28,307.28,0,0,0-200.826,90.9c24.809,24.791,44.892,54.3,60.249,87.358,5.315,10.625,9.45,22.43,12.995,34.235,27.17-44.86,73.242-73.783,128.174-79.095,6.5-.59,12.995-1.181,19.492-1.181,96.869,0,173.655,70.241,173.655,176.487s-76.786,176.487-173.655,176.487c-6.5,0-13.585-.59-19.492-1.181-54.341-5.9-101-34.235-128.174-79.095-8.268-13.575-14.176-28.332-18.9-44.269a212.067,212.067,0,0,1-6.5-51.943,310.1,310.1,0,0,0-4.134-52.533,284.24,284.24,0,0,0-10.633-44.269c-3.544-11.215-8.269-23.02-12.4-33.645h0c-2.362-5.312-5.315-10.624-8.269-15.937s-5.906-10.625-8.86-15.347a96.938,96.938,0,0,0-8.269-12.986c-.591-.59-1.182-1.771-1.772-2.361l-8.86-12.4c-1.181-1.771-2.954-3.542-4.725-5.9-.591-.59-1.182-1.771-1.772-2.361a118.3,118.3,0,0,0-8.268-9.445c-2.954-3.541-6.5-7.083-10.041-10.624A308.751,308.751,0,0,0,631.3,211.29c-6.5-.59-13.585-.59-20.082-.59C440.516,210.7,302.3,344.689,302.3,520c0,174.716,138.806,308.7,308.918,308.7,7.088,0,13.585,0,20.082-.59a308.754,308.754,0,0,0,201.417-90.9,237.415,237.415,0,0,1-20.083-22.43c-23.625-28.923-41.346-61.977-53.159-98.573C732.3,661.067,686.232,689.4,631.3,695.3c-6.5.59-13.585,1.181-20.082,1.181-96.87,0-173.066-70.24-173.066-176.487s76.787-176.487,173.066-176.487c7.088,0,13.585.59,20.082,1.181,54.341,5.9,101,34.235,128.175,79.095h0a159.136,159.136,0,0,1,18.311,43.679A188.188,188.188,0,0,1,784.874,520a298.474,298.474,0,0,0,4.135,51.943,268.941,268.941,0,0,0,10.631,44.269c11.814,36.6,29.534,69.651,53.16,98.573,6.5,7.674,12.995,15.347,20.083,22.43,51.387,52.533,122.267,86.178,200.826,90.9,6.5.59,13.585.59,20.082.59,170.7,0,309.509-133.989,309.509-308.7C1403.3,344.689,1264.493,210.7,1093.791,210.7Z" transform="translate(957.138 184.851)" fill="rgba(0,0,0,0.2)" />
        <!-- <path id="Path_392" data-name="Path 392" d="M532.261,358.764H394.024a303.572,303.572,0,0,1-4.135-51.986A191.576,191.576,0,0,0,382.8,254.2H521.628a305.664,305.664,0,0,1,4.135,52.577A212.415,212.415,0,0,0,532.261,358.764Z" transform="translate(1352.112 398.046)" fill="rgba(0,0,0,0.27)" /> -->
    </g>
</svg>
  